<svg width="134" height="12" fill="none" xmlns="http://www.w3.org/2000/svg"><path d="M13.286 1.13h2.072L11.844 11h-1.75L7.812 4.462 5.502 11h-1.75l-3.5-9.87h2.212l2.254 6.818L7.112 1.13h1.526l2.31 6.888 2.338-6.888Zm7.451 2.828c.822 0 1.433.243 1.834.728.402.476.602 1.2.602 2.17V11H21.06V6.954c0-.467-.088-.807-.266-1.022-.168-.215-.434-.322-.798-.322-.438 0-.793.14-1.064.42-.261.28-.392.653-.392 1.12V11h-2.114V1.13h2.114v3.906c.243-.355.55-.62.924-.798.383-.187.808-.28 1.274-.28ZM30.94 7.962h-4.48c.065.55.242.952.531 1.204.3.243.72.364 1.26.364.355 0 .705-.056 1.05-.168.355-.121.677-.29.966-.504l.56 1.414a3.812 3.812 0 0 1-1.232.616c-.476.15-.956.224-1.441.224-1.158 0-2.073-.317-2.744-.952-.663-.644-.994-1.517-.994-2.618 0-.7.144-1.32.433-1.862.29-.541.691-.961 1.204-1.26.514-.308 1.097-.462 1.75-.462.962 0 1.723.313 2.282.938.57.625.854 1.475.854 2.548v.518Zm-3.08-2.548c-.402 0-.724.13-.966.392-.234.252-.378.62-.434 1.106h2.701c-.027-.495-.154-.868-.378-1.12-.214-.252-.522-.378-.924-.378Zm9.27.28-1.19.126c-.588.056-1.003.224-1.246.504-.242.27-.364.635-.364 1.092V11h-2.114V4.126h2.03v1.162c.346-.793 1.06-1.227 2.142-1.302l.616-.042.126 1.75Zm6.757 2.268h-4.48c.065.55.242.952.532 1.204.298.243.718.364 1.26.364.354 0 .704-.056 1.05-.168.354-.121.676-.29.966-.504l.56 1.414a3.81 3.81 0 0 1-1.232.616c-.476.15-.957.224-1.442.224-1.158 0-2.072-.317-2.744-.952-.663-.644-.994-1.517-.994-2.618 0-.7.144-1.32.434-1.862.29-.541.69-.961 1.204-1.26.513-.308 1.096-.462 1.75-.462.961 0 1.722.313 2.282.938.57.625.854 1.475.854 2.548v.518Zm-3.08-2.548c-.402 0-.724.13-.966.392-.234.252-.378.62-.434 1.106h2.702c-.028-.495-.154-.868-.378-1.12-.215-.252-.523-.378-.924-.378ZM49.074 11V4.126h2.114V11h-2.114ZM49.004.822h2.268v1.974h-2.268V.822Zm8.114 3.136c.822 0 1.433.243 1.834.728.401.476.602 1.2.602 2.17V11H57.44V6.954c0-.467-.088-.807-.266-1.022-.168-.215-.434-.322-.798-.322-.438 0-.793.14-1.064.42-.261.28-.392.653-.392 1.12V11h-2.114V4.126h2.058v.98c.243-.373.556-.658.938-.854.392-.196.83-.294 1.316-.294Zm11.732 5.6c.215 0 .44-.014.672-.042l-.112 1.54c-.27.037-.54.056-.811.056-1.046 0-1.811-.229-2.297-.686-.476-.457-.714-1.153-.714-2.086V5.708h-1.301V4.126h1.301V2.11h2.115v2.016h1.721v1.582h-1.722v2.618c0 .821.383 1.232 1.148 1.232Zm5.919-5.6c.82 0 1.432.243 1.834.728.4.476.602 1.2.602 2.17V11H75.09V6.954c0-.467-.09-.807-.266-1.022-.169-.215-.434-.322-.799-.322-.438 0-.793.14-1.063.42-.262.28-.392.653-.392 1.12V11h-2.114V1.13h2.114v3.906c.242-.355.55-.62.924-.798.382-.187.807-.28 1.273-.28ZM84.97 7.962h-4.48c.065.55.242.952.532 1.204.298.243.718.364 1.26.364.354 0 .704-.056 1.05-.168.354-.121.676-.29.966-.504l.56 1.414a3.812 3.812 0 0 1-1.232.616c-.476.15-.957.224-1.442.224-1.158 0-2.072-.317-2.744-.952-.663-.644-.994-1.517-.994-2.618 0-.7.144-1.32.434-1.862.289-.541.69-.961 1.204-1.26.513-.308 1.096-.462 1.75-.462.961 0 1.722.313 2.282.938.569.625.854 1.475.854 2.548v.518Zm-3.08-2.548c-.402 0-.724.13-.966.392-.234.252-.378.62-.434 1.106h2.702c-.028-.495-.154-.868-.378-1.12-.215-.252-.523-.378-.924-.378Zm17.507-1.288h2.058L98.67 11h-1.792l-1.512-3.878L93.896 11h-1.778l-2.8-6.874h2.156l1.624 4.354 1.624-4.354h1.428l1.638 4.396 1.61-4.396Zm6.013 6.986c-.728 0-1.367-.145-1.918-.434a3.15 3.15 0 0 1-1.274-1.246c-.299-.541-.448-1.176-.448-1.904s.149-1.358.448-1.89a3.037 3.037 0 0 1 1.274-1.246c.551-.29 1.19-.434 1.918-.434s1.367.145 1.918.434c.551.29.975.705 1.274 1.246.299.532.448 1.162.448 1.89s-.149 1.363-.448 1.904a3.15 3.15 0 0 1-1.274 1.246c-.551.29-1.19.434-1.918.434Zm0-1.61c1.027 0 1.54-.658 1.54-1.974 0-.663-.135-1.157-.406-1.484-.261-.327-.639-.49-1.134-.49-1.027 0-1.54.658-1.54 1.974 0 1.316.513 1.974 1.54 1.974Zm9.84-3.808-1.19.126c-.588.056-1.003.224-1.246.504-.242.27-.364.635-.364 1.092V11h-2.114V4.126h2.03v1.162c.346-.793 1.06-1.227 2.142-1.302l.616-.042.126 1.75Zm.706 5.306V1.13h2.114V11h-2.114Zm10.69-9.87V11h-2.1V9.978a2.184 2.184 0 0 1-.882.84 2.698 2.698 0 0 1-1.274.294c-.588 0-1.115-.15-1.582-.448a3.146 3.146 0 0 1-1.078-1.274c-.252-.55-.378-1.18-.378-1.89s.126-1.33.378-1.862c.261-.541.621-.957 1.078-1.246.457-.29.985-.434 1.582-.434.467 0 .887.098 1.26.294.383.196.677.471.882.826V1.13h2.114Zm-3.64 8.372c.495 0 .873-.168 1.134-.504.271-.345.406-.835.406-1.47s-.135-1.12-.406-1.456c-.261-.336-.639-.504-1.134-.504-.495 0-.877.168-1.148.504-.271.327-.406.803-.406 1.428 0 .635.135 1.13.406 1.484.271.345.653.518 1.148.518Zm7.004-2.324c0-.485.089-.887.266-1.204a5.87 5.87 0 0 1 .742-1.036c.243-.28.42-.518.532-.714.121-.196.182-.41.182-.644 0-.28-.093-.495-.28-.644-.187-.15-.453-.224-.798-.224-.373 0-.779.084-1.218.252a5.802 5.802 0 0 0-1.288.7l-.7-1.554c.383-.336.882-.602 1.498-.798a5.983 5.983 0 0 1 1.876-.308c.597 0 1.125.103 1.582.308.467.196.826.476 1.078.84.261.355.392.76.392 1.218 0 .345-.065.663-.196.952-.131.28-.289.527-.476.742a10.69 10.69 0 0 1-.742.756c-.355.336-.621.62-.798.854a1.632 1.632 0 0 0-.336.742l-.084.462h-1.232v-.7ZM129.535 11V8.76h2.254V11h-2.254Z" fill="#111517"/></svg>